<svg width="145" height="30" viewBox="0 0 145 30" fill="none" xmlns="http://www.w3.org/2000/svg">
<path d="M27.5625 3.22524C27.2891 3.01239 26.9336 2.94517 26.6 3.046C25.3313 3.42129 23.718 3.31486 21.6727 3.18043C20.3984 3.09641 18.9492 3.00118 17.2813 3.00118C15.9742 3.00118 14.8039 3.58933 14 4.52477C13.1961 3.58933 12.0258 3.00118 10.7188 3.00118C9.05081 3.00118 7.6016 3.09641 6.32191 3.18043C4.2766 3.31486 2.66333 3.41569 1.39458 3.046C1.06645 2.94517 0.710985 3.01239 0.437548 3.22524C0.164111 3.43809 4.88454e-05 3.76858 4.88454e-05 4.12147V22.707C-0.0054199 23.9057 0.448486 25.0315 1.27973 25.883C2.10551 26.7344 3.20473 27.1993 4.37504 27.1993H12.9063C12.9063 27.8154 13.3985 28.3196 14 28.3196C14.6016 28.3196 15.0938 27.8154 15.0938 27.1993V7.48232C15.0938 6.2444 16.0727 5.24175 17.2813 5.24175C18.8781 5.24175 20.2945 5.33137 21.5414 5.41539C23.1711 5.52182 24.5547 5.61144 25.8125 5.47141V22.7182C25.8125 23.3343 26.3047 23.8384 26.9062 23.8384C27.5078 23.8384 28 23.3343 28 22.7182V4.12147C28 3.76858 27.8414 3.43809 27.5625 3.22524ZM2.18754 5.47141C3.44536 5.61144 4.82895 5.52182 6.45863 5.41539C7.7055 5.33137 9.12191 5.24175 10.7188 5.24175C11.9274 5.24175 12.9063 6.2444 12.9063 7.48232V20.5336C12.7313 20.4944 12.5453 20.4776 12.3594 20.4776H4.37504C3.16645 20.4776 2.18754 19.4749 2.18754 18.237V5.47141ZM4.37504 24.9587C3.78989 24.9587 3.23754 24.7235 2.82739 24.2978C2.41723 23.8721 2.18754 23.3119 2.18754 22.707V22.1132C2.83286 22.4941 3.5766 22.7182 4.37504 22.7182H12.3594C12.6602 22.7182 12.9063 22.9702 12.9063 23.2783V24.9587H4.37504ZM21.5524 13.3414C21.3664 12.9773 21 12.7532 20.6008 12.7476C20.2016 12.742 19.8297 12.9605 19.6328 13.3134L17.3688 17.4136C17.2758 17.5817 17.2266 17.7721 17.2266 17.9626V26.6392C17.2266 28.4932 18.6977 30 20.5078 30C22.318 30 23.7891 28.4932 23.7891 26.6392V17.9514C23.7891 17.7665 23.7453 17.5873 23.6633 17.4248L21.5524 13.3414ZM20.5516 16.1981L21.6016 18.2258V24.1185H19.4141V18.265L20.5516 16.1981ZM20.5078 27.7594C19.9063 27.7594 19.4141 27.2553 19.4141 26.6392V26.3591H21.6016V26.6392C21.6016 27.2553 21.1094 27.7594 20.5078 27.7594Z" fill="#F65D4E"/>
<path d="M38.896 24H46.096C49.12 24 51.376 21.816 51.376 18.984C51.376 17.064 50.368 15.696 48.856 14.952C49.696 14.208 50.2 13.224 50.2 11.904C50.2 9.216 48.016 6.96 45.136 6.96H38.896V24ZM42.376 20.808V16.896H45.856C47.176 16.896 47.992 17.736 47.992 18.864C47.992 19.992 47.176 20.808 45.856 20.808H42.376ZM42.376 13.944V10.128H44.8C46.024 10.128 46.816 11.016 46.816 12.048C46.816 13.104 46.024 13.944 44.8 13.944H42.376ZM54.1069 24H57.5869V17.064H64.9789V24H68.4589V6.96H64.9789V13.752H57.5869V6.96H54.1069V24ZM80.0476 20.928C77.0716 20.928 74.7436 18.456 74.7436 15.48C74.7436 12.504 77.0716 10.032 80.0476 10.032C83.0236 10.032 85.3516 12.504 85.3516 15.48C85.3516 18.456 83.0236 20.928 80.0476 20.928ZM80.0476 24.288C84.9196 24.288 88.8556 20.352 88.8556 15.48C88.8556 10.608 84.9196 6.672 80.0476 6.672C75.1756 6.672 71.2396 10.608 71.2396 15.48C71.2396 20.352 75.1756 24.288 80.0476 24.288ZM96.4812 24.288C99.9852 24.288 102.433 22.2 102.433 19.152C102.457 16.56 100.873 15.024 98.3772 14.088L97.0092 13.584C95.1852 12.936 94.3932 12.48 94.3932 11.448C94.3932 10.44 95.4972 9.936 96.6732 9.936C97.8252 9.936 98.9052 10.416 99.6972 11.4L102.025 9.024C100.513 7.392 98.7372 6.672 96.6252 6.672C93.2892 6.672 90.8652 8.592 90.8652 11.784C90.8652 14.112 92.3052 15.696 95.0652 16.656L96.5052 17.16C98.2092 17.736 98.9052 18.408 98.9052 19.368C98.9052 20.352 97.9692 21.024 96.6012 21.024C95.1852 21.024 93.7692 20.28 92.9292 19.008L90.2412 21.24C91.4652 23.136 93.7692 24.288 96.4812 24.288ZM110.662 24H121.438V20.688H114.142V6.96H110.662V24ZM123.88 24H127.36V6.96H123.88V24ZM131.146 24H138.346C141.37 24 143.626 21.816 143.626 18.984C143.626 17.064 142.618 15.696 141.106 14.952C141.946 14.208 142.45 13.224 142.45 11.904C142.45 9.216 140.266 6.96 137.386 6.96H131.146V24ZM134.626 20.808V16.896H138.106C139.426 16.896 140.242 17.736 140.242 18.864C140.242 19.992 139.426 20.808 138.106 20.808H134.626ZM134.626 13.944V10.128H137.05C138.274 10.128 139.066 11.016 139.066 12.048C139.066 13.104 138.274 13.944 137.05 13.944H134.626Z" fill="white"/>
</svg>
