<svg width="1200" height="580" viewBox="0 0 1200 580" fill="none" xmlns="http://www.w3.org/2000/svg">
<g clip-path="url(#clip0_4_2)">
<path d="M67.069 171.18C9.88295 334.432 20.6974 436.783 99.5067 478.233C217.724 540.408 498.819 565.278 616.316 700.153C733.81 835.025 1092.06 730.759 1153.33 499.275C1214.6 267.792 1324.92 -89 743.211 -89C355.401 -89 130.023 -2.27498 67.069 171.18Z" fill="#FEEFED"/>
<path d="M117.069 169.18C59.883 332.432 70.6975 434.783 149.507 476.233C267.724 538.408 548.819 563.278 666.316 698.153C783.81 833.025 1142.06 728.759 1203.33 497.275C1264.6 265.792 1374.92 -91 793.211 -91C405.401 -91 180.023 -4.27497 117.069 169.18Z" fill="#FEE7E4"/>
<path d="M165.069 165.18C107.883 328.432 118.697 430.783 197.507 472.233C315.724 534.408 596.819 559.278 714.316 694.153C831.81 829.025 1190.06 724.759 1251.33 493.275C1312.6 261.792 1422.92 -95 841.211 -95C453.401 -95 228.023 -8.27497 165.069 165.18Z" fill="#FDDFDC"/>
<path d="M217.069 158.18C159.883 321.432 170.697 423.783 249.507 465.233C367.724 527.408 648.819 552.278 766.316 687.153C883.81 822.025 1242.06 717.759 1303.33 486.275C1364.6 254.792 1474.92 -102 893.211 -102C505.401 -102 280.023 -15.275 217.069 158.18Z" fill="#FDD7D3"/>
<path d="M266.069 145.18C208.883 308.432 219.697 410.783 298.507 452.233C416.724 514.408 697.819 539.278 815.316 674.153C932.81 809.025 1291.06 704.759 1352.33 473.275C1413.6 241.792 1523.92 -115 942.211 -115C554.401 -115 329.023 -28.275 266.069 145.18Z" fill="#FCCECA"/>
<path d="M312.069 135.18C254.883 298.432 265.697 400.783 344.507 442.233C462.724 504.408 743.819 529.278 861.316 664.153C978.81 799.025 1337.06 694.759 1398.33 463.275C1459.6 231.792 1569.92 -125 988.211 -125C600.401 -125 375.023 -38.275 312.069 135.18Z" fill="#FCC6C1"/>
<path d="M351.962 126.438C296.531 285.459 307.014 385.158 383.404 425.534C497.993 486.099 770.461 510.324 884.353 641.704C998.24 773.081 1345.5 671.517 1404.89 446.032C1464.28 220.546 1571.21 -127 1007.35 -127C631.445 -127 412.984 -42.5223 351.962 126.438Z" fill="#FBBEB8"/>
<path d="M403.788 98.2416C323.45 271.069 338.643 379.423 449.358 423.305C615.434 489.127 1010.33 515.456 1175.39 658.242C1340.45 801.025 1843.75 690.643 1929.82 445.582C2015.9 200.52 2170.87 -177.2 1353.66 -177.2C808.85 -177.2 492.228 -85.388 403.788 98.2416Z" fill="#FBB6AF"/>
<path d="M403.788 98.2416C323.45 271.069 338.643 379.423 449.358 423.305C615.434 489.127 1010.33 515.456 1175.39 658.242C1340.45 801.025 1843.75 690.643 1929.82 445.582C2015.9 200.52 2170.87 -177.2 1353.66 -177.2C808.85 -177.2 492.228 -85.388 403.788 98.2416Z" fill="#FBB6AF"/>
<path d="M443.603 88.0858C367.569 251.654 381.948 354.204 486.731 395.735C643.911 458.031 1017.65 482.949 1173.87 618.086C1330.09 753.22 1806.42 648.752 1887.88 416.818C1969.35 184.885 2116.02 -172.6 1342.59 -172.6C826.965 -172.6 527.306 -85.7065 443.603 88.0858Z" fill="#FBAEA7"/>
<path d="M483.418 77.93C411.688 232.24 425.252 328.985 524.105 368.165C672.387 426.935 1024.97 450.443 1172.35 577.93C1319.73 705.415 1769.09 606.86 1845.95 388.055C1922.8 169.25 2061.17 -168 1331.52 -168C845.08 -168 562.383 -86.025 483.418 77.93Z" fill="#FAA69E"/>
<path d="M523.233 67.7742C455.806 212.826 468.557 303.766 561.479 340.595C700.864 395.839 1032.29 417.936 1170.83 537.774C1309.36 657.61 1731.77 564.968 1804.01 359.292C1876.25 153.615 2006.32 -163.4 1320.45 -163.4C863.195 -163.4 597.46 -86.3435 523.233 67.7742Z" fill="#FA9E95"/>
<path d="M563.047 57.6184C499.925 193.411 511.862 278.547 598.852 313.025C729.341 364.743 1039.62 385.429 1169.31 497.618C1299 609.805 1694.44 523.077 1762.07 330.528C1829.7 137.98 1951.47 -158.8 1309.38 -158.8C881.31 -158.8 632.537 -86.662 563.047 57.6184Z" fill="#F9968C"/>
<path d="M602.862 47.4626C544.044 173.997 555.167 253.328 636.226 285.455C757.818 333.647 1046.94 352.923 1167.79 457.463C1288.64 562 1657.12 481.185 1720.14 301.765C1783.16 122.345 1896.62 -154.2 1298.31 -154.2C899.426 -154.2 667.614 -86.9805 602.862 47.4626Z" fill="#F98E83"/>
<path d="M642.677 37.3068C588.163 154.582 598.472 228.109 673.6 257.885C786.295 302.551 1054.26 320.416 1166.27 417.307C1278.27 514.195 1619.79 439.294 1678.2 273.002C1736.61 106.71 1841.77 -149.6 1287.24 -149.6C917.541 -149.6 702.691 -87.299 642.677 37.3068Z" fill="#F8867A"/>
<path d="M682.492 27.151C632.281 135.168 641.777 202.89 710.973 230.316C814.771 271.455 1061.58 287.91 1164.75 377.151C1267.91 466.391 1582.47 397.402 1636.26 244.238C1690.06 91.075 1786.92 -145 1276.16 -145C935.656 -145 737.768 -87.6175 682.492 27.151Z" fill="#F87D71"/>
<path d="M722.307 16.9952C676.4 115.754 685.082 177.67 748.347 202.746C843.248 240.358 1068.9 255.403 1163.23 336.995C1257.55 418.586 1545.14 355.51 1594.33 215.475C1643.51 75.44 1732.07 -140.4 1265.09 -140.4C953.771 -140.4 772.845 -87.936 722.307 16.9952Z" fill="#F77569"/>
<path d="M762.122 6.83942C720.519 96.3392 728.386 152.451 785.721 175.176C871.725 209.262 1076.22 222.897 1161.7 296.839C1247.18 370.781 1507.82 313.619 1552.39 186.712C1596.96 59.805 1677.22 -135.8 1254.02 -135.8C971.886 -135.8 807.922 -88.2545 762.122 6.83942Z" fill="#F76D60"/>
<path d="M801.937 -3.31641C764.638 76.9248 771.691 127.232 823.095 147.606C900.201 178.166 1083.55 190.39 1160.18 256.684C1236.82 322.976 1470.49 271.727 1510.45 157.949C1550.42 44.17 1622.37 -131.2 1242.95 -131.2C990.002 -131.2 842.999 -88.573 801.937 -3.31641Z" fill="#F66557"/>
</g>
<defs>
<clipPath id="clip0_4_2">
<rect width="1200" height="580" fill="white"/>
</clipPath>
</defs>
</svg>
